<svg width="143" height="24" viewBox="0 0 143 24" fill="none" xmlns="http://www.w3.org/2000/svg">
<path d="M0.349976 15.11C0.349976 13.97 0.529976 12.9 0.889976 11.9C1.26998 10.88 1.80998 9.99999 2.50998 9.25999C3.20998 8.49999 4.05998 7.89999 5.05998 7.45999C6.05998 7.01999 7.19998 6.79999 8.47998 6.79999C9.31998 6.79999 10.09 6.87999 10.79 7.03999C11.49 7.17999 12.17 7.38999 12.83 7.66999L11.9 11.24C11.48 11.08 11.02 10.94 10.52 10.82C10.02 10.7 9.45998 10.64 8.83998 10.64C7.51998 10.64 6.52998 11.05 5.86998 11.87C5.22998 12.69 4.90998 13.77 4.90998 15.11C4.90998 16.53 5.20998 17.63 5.80998 18.41C6.42998 19.19 7.49998 19.58 9.01998 19.58C9.55998 19.58 10.14 19.53 10.76 19.43C11.38 19.33 11.95 19.17 12.47 18.95L13.1 22.61C12.58 22.83 11.93 23.02 11.15 23.18C10.37 23.34 9.50998 23.42 8.56997 23.42C7.12997 23.42 5.88998 23.21 4.84998 22.79C3.80998 22.35 2.94998 21.76 2.26998 21.02C1.60998 20.28 1.11998 19.41 0.799976 18.41C0.499976 17.39 0.349976 16.29 0.349976 15.11Z" fill="white"/>
<path d="M30.0983 15.08C30.0983 16.32 29.9183 17.46 29.5583 18.5C29.1983 19.52 28.6783 20.4 27.9983 21.14C27.3183 21.86 26.4983 22.42 25.5383 22.82C24.5983 23.22 23.5383 23.42 22.3583 23.42C21.1983 23.42 20.1383 23.22 19.1783 22.82C18.2383 22.42 17.4283 21.86 16.7483 21.14C16.0683 20.4 15.5383 19.52 15.1583 18.5C14.7783 17.46 14.5883 16.32 14.5883 15.08C14.5883 13.84 14.7783 12.71 15.1583 11.69C15.5583 10.67 16.0983 9.79999 16.7783 9.07999C17.4783 8.35999 18.2983 7.79999 19.2383 7.39999C20.1983 6.99999 21.2383 6.79999 22.3583 6.79999C23.4983 6.79999 24.5383 6.99999 25.4783 7.39999C26.4383 7.79999 27.2583 8.35999 27.9383 9.07999C28.6183 9.79999 29.1483 10.67 29.5283 11.69C29.9083 12.71 30.0983 13.84 30.0983 15.08ZM25.5383 15.08C25.5383 13.7 25.2583 12.62 24.6983 11.84C24.1583 11.04 23.3783 10.64 22.3583 10.64C21.3383 10.64 20.5483 11.04 19.9883 11.84C19.4283 12.62 19.1483 13.7 19.1483 15.08C19.1483 16.46 19.4283 17.56 19.9883 18.38C20.5483 19.18 21.3383 19.58 22.3583 19.58C23.3783 19.58 24.1583 19.18 24.6983 18.38C25.2583 17.56 25.5383 16.46 25.5383 15.08Z" fill="white"/>
<path d="M47.0309 22.46C46.2709 22.68 45.2909 22.88 44.0909 23.06C42.8909 23.26 41.6309 23.36 40.3109 23.36C38.9709 23.36 37.8509 23.18 36.9509 22.82C36.0709 22.46 35.3709 21.96 34.8509 21.32C34.3309 20.66 33.9609 19.88 33.7409 18.98C33.5209 18.08 33.4109 17.09 33.4109 16.01V7.21999H37.8809V15.47C37.8809 16.91 38.0709 17.95 38.4509 18.59C38.8309 19.23 39.5409 19.55 40.5809 19.55C40.9009 19.55 41.2409 19.54 41.6009 19.52C41.9609 19.48 42.2809 19.44 42.5609 19.4V7.21999H47.0309V22.46Z" fill="white"/>
<path d="M51.2269 7.75999C51.9869 7.53999 52.9669 7.33999 54.1669 7.15999C55.3669 6.95999 56.6269 6.85999 57.9469 6.85999C59.2869 6.85999 60.3969 7.03999 61.2769 7.39999C62.1769 7.73999 62.8869 8.22999 63.4069 8.86999C63.9269 9.50999 64.2969 10.27 64.5169 11.15C64.7369 12.03 64.8469 13.01 64.8469 14.09V23H60.3769V14.63C60.3769 13.19 60.1869 12.17 59.8069 11.57C59.4269 10.97 58.7169 10.67 57.6769 10.67C57.3569 10.67 57.0169 10.69 56.6569 10.73C56.2969 10.75 55.9769 10.78 55.6969 10.82V23H51.2269V7.75999Z" fill="white"/>
<path d="M68.7429 3.28999L73.2129 2.56999V7.21999H78.5829V10.94H73.2129V16.49C73.2129 17.43 73.3729 18.18 73.6929 18.74C74.0329 19.3 74.7029 19.58 75.7029 19.58C76.1829 19.58 76.6729 19.54 77.1729 19.46C77.6929 19.36 78.1629 19.23 78.5829 19.07L79.2129 22.55C78.6729 22.77 78.0729 22.96 77.4129 23.12C76.7529 23.28 75.9429 23.36 74.9829 23.36C73.7629 23.36 72.7529 23.2 71.9529 22.88C71.1529 22.54 70.5129 22.08 70.0329 21.5C69.5529 20.9 69.2129 20.18 69.0129 19.34C68.8329 18.5 68.7429 17.57 68.7429 16.55V3.28999Z" fill="white"/>
<path d="M91.733 11.18C91.333 11.08 90.863 10.98 90.323 10.88C89.783 10.76 89.203 10.7 88.583 10.7C88.303 10.7 87.963 10.73 87.563 10.79C87.183 10.83 86.893 10.88 86.693 10.94V23H82.223V8.05999C83.023 7.77999 83.963 7.51999 85.043 7.27999C86.143 7.01999 87.363 6.88999 88.703 6.88999C88.943 6.88999 89.233 6.90999 89.573 6.94999C89.913 6.96999 90.253 7.00999 90.593 7.06999C90.933 7.10999 91.273 7.16999 91.613 7.24999C91.953 7.30999 92.243 7.38999 92.483 7.48999L91.733 11.18Z" fill="white"/>
<path d="M99.3493 23H94.8793V7.21999H99.3493V23ZM99.7693 2.65999C99.7693 3.47999 99.4993 4.12999 98.9593 4.60999C98.4393 5.06999 97.8193 5.29999 97.0993 5.29999C96.3793 5.29999 95.7493 5.06999 95.2093 4.60999C94.6893 4.12999 94.4293 3.47999 94.4293 2.65999C94.4293 1.83999 94.6893 1.19999 95.2093 0.739989C95.7493 0.259989 96.3793 0.019989 97.0993 0.019989C97.8193 0.019989 98.4393 0.259989 98.9593 0.739989C99.4993 1.19999 99.7693 1.83999 99.7693 2.65999Z" fill="white"/>
<path d="M102.801 15.23C102.801 13.83 103.011 12.61 103.431 11.57C103.871 10.51 104.441 9.62999 105.141 8.92999C105.841 8.22999 106.641 7.69999 107.541 7.33999C108.461 6.97999 109.401 6.79999 110.361 6.79999C112.601 6.79999 114.371 7.48999 115.671 8.86999C116.971 10.23 117.621 12.24 117.621 14.9C117.621 15.16 117.611 15.45 117.591 15.77C117.571 16.07 117.551 16.34 117.531 16.58H107.391C107.491 17.5 107.921 18.23 108.681 18.77C109.441 19.31 110.461 19.58 111.741 19.58C112.561 19.58 113.361 19.51 114.141 19.37C114.941 19.21 115.591 19.02 116.091 18.8L116.691 22.43C116.451 22.55 116.131 22.67 115.731 22.79C115.331 22.91 114.881 23.01 114.381 23.09C113.901 23.19 113.381 23.27 112.821 23.33C112.261 23.39 111.701 23.42 111.141 23.42C109.721 23.42 108.481 23.21 107.421 22.79C106.381 22.37 105.511 21.8 104.811 21.08C104.131 20.34 103.621 19.47 103.281 18.47C102.961 17.47 102.801 16.39 102.801 15.23ZM113.301 13.52C113.281 13.14 113.211 12.77 113.091 12.41C112.991 12.05 112.821 11.73 112.581 11.45C112.361 11.17 112.071 10.94 111.711 10.76C111.371 10.58 110.941 10.49 110.421 10.49C109.921 10.49 109.491 10.58 109.131 10.76C108.771 10.92 108.471 11.14 108.231 11.42C107.991 11.7 107.801 12.03 107.661 12.41C107.541 12.77 107.451 13.14 107.391 13.52H113.301Z" fill="white"/>
<path d="M130.671 13.94C130.271 15.46 129.841 16.97 129.381 18.47C128.941 19.97 128.471 21.48 127.971 23H124.491C124.131 22.16 123.741 21.16 123.321 20C122.901 18.84 122.461 17.58 122.001 16.22C121.561 14.84 121.101 13.39 120.621 11.87C120.161 10.33 119.711 8.77999 119.271 7.21999H123.981C124.141 7.93999 124.311 8.72999 124.491 9.58999C124.691 10.43 124.891 11.3 125.091 12.2C125.311 13.1 125.531 14.01 125.751 14.93C125.991 15.83 126.231 16.7 126.471 17.54C126.731 16.66 126.981 15.76 127.221 14.84C127.481 13.92 127.721 13.02 127.941 12.14C128.181 11.24 128.401 10.38 128.601 9.55999C128.821 8.71999 129.011 7.93999 129.171 7.21999H132.411C132.571 7.93999 132.751 8.71999 132.951 9.55999C133.151 10.38 133.361 11.24 133.581 12.14C133.801 13.02 134.031 13.92 134.271 14.84C134.511 15.76 134.761 16.66 135.021 17.54C135.261 16.7 135.501 15.83 135.741 14.93C135.981 14.01 136.201 13.1 136.401 12.2C136.621 11.3 136.821 10.43 137.001 9.58999C137.201 8.72999 137.381 7.93999 137.541 7.21999H142.191C141.751 8.77999 141.291 10.33 140.811 11.87C140.351 13.39 139.891 14.84 139.431 16.22C138.991 17.58 138.551 18.84 138.111 20C137.691 21.16 137.301 22.16 136.941 23H133.461C132.961 21.48 132.471 19.97 131.991 18.47C131.511 16.97 131.071 15.46 130.671 13.94Z" fill="white"/>
</svg>
